<svg width="78" height="32" viewBox="0 0 78 32" fill="none" xmlns="http://www.w3.org/2000/svg">
<path fill-rule="evenodd" clip-rule="evenodd" d="M29.3557 25.425C29.3557 24.2505 29.0855 22.829 28.1996 21.8466C27.8809 21.4953 27.3731 21.1056 26.8221 20.8587C26.3845 20.6611 25.7092 20.48 24.9907 20.48C23.5808 20.48 22.4788 20.963 21.6901 21.8246C20.8905 22.6973 20.534 23.8992 20.48 25.392V27.0385C20.48 28.7838 20.9392 30.0955 21.9007 30.9407C22.6894 31.6378 23.9751 31.989 25.2987 31.989C26.3786 31.989 27.168 31.8362 28.1599 31.6441L28.1599 31.6441L28.2212 31.6323L28.8046 31.5005V29.3601L28.2212 29.4589L28.0693 29.4836C27.3072 29.6081 26.3053 29.7717 25.2987 29.7717C24.51 29.7717 23.7375 29.5906 23.4025 29.19C23.0568 28.7838 22.7921 28.2295 22.7813 27.2581H28.2104H28.2266C28.8479 27.2416 29.3502 26.7257 29.3502 26.0891V26.0836V25.425H29.3557ZM22.7996 25.0214L22.7996 25.0213C22.8199 24.4561 22.8363 23.9975 23.0784 23.6138C23.1594 23.4656 23.2783 23.3229 23.4241 23.1912C23.6078 23.0266 23.8131 22.9113 24.0076 22.8564C24.2669 22.7631 24.5802 22.7302 24.9907 22.7302C25.7957 22.7302 26.3143 23.0211 26.579 23.3284C27.0287 23.8605 27.0535 24.44 27.0848 25.17L27.0868 25.2164L22.7921 25.2219C22.7949 25.1536 22.7973 25.0869 22.7996 25.0215L22.7996 25.0215L22.7996 25.0214ZM45.2811 31.989C43.9035 31.989 42.7421 31.4896 41.9318 30.5401C41.2079 29.6949 40.8081 28.4051 40.8081 26.9123V25.5731C40.8081 24.0803 41.2079 22.7906 41.9318 21.9454C42.7529 20.9849 43.9143 20.48 45.2811 20.48C46.6316 20.48 47.8255 21.0014 48.6412 21.9454C49.3705 22.7906 49.7756 24.0803 49.7756 25.5731V26.9123C49.7756 28.4326 49.3651 29.7059 48.5872 30.6005C47.7931 31.5115 46.6532 31.989 45.2811 31.989ZM45.2811 22.7357C44.5734 22.7357 44.0332 22.9717 43.6821 23.4272C43.3201 23.8992 43.1364 24.6237 43.1364 25.5731V26.9123C43.1364 27.8618 43.3201 28.5808 43.6821 29.0473C44.0332 29.5028 44.5734 29.7333 45.2865 29.7333C45.8969 29.7333 46.6046 29.5632 47.0314 28.8332C47.3069 28.3612 47.4527 27.7136 47.4527 26.9123V25.5731C47.4473 24.1791 47.026 23.3614 46.3831 22.9881C46.0806 22.818 45.7078 22.7357 45.2811 22.7357ZM64.2965 31.9945C62.919 31.9945 61.7575 31.4951 60.9472 30.5456C60.2233 29.7004 59.8236 28.4106 59.8236 26.9178V25.5786C59.8236 24.0858 60.2233 22.7961 60.9472 21.9509C61.7683 20.9904 62.9298 20.4855 64.2965 20.4855C65.647 20.4855 66.8409 21.0069 67.6566 21.9509C68.3859 22.7961 68.7911 24.0858 68.7911 25.5786V26.9178C68.7911 28.4381 68.3805 29.7113 67.6026 30.6059C66.8085 31.5115 65.6632 31.9945 64.2965 31.9945ZM64.2965 22.7357C63.5888 22.7357 63.0486 22.9717 62.6975 23.4272C62.3355 23.8992 62.1519 24.6237 62.1519 25.5731V26.9123C62.1519 27.8618 62.3355 28.5808 62.6975 29.0473C63.0486 29.5028 63.5888 29.7333 64.3019 29.7333C64.9124 29.7333 65.62 29.5632 66.0468 28.8332C66.3223 28.3612 66.4682 27.7136 66.4682 26.9123V25.5731C66.4628 24.1791 66.0414 23.3614 65.3985 22.9881C65.096 22.8235 64.7233 22.7357 64.2965 22.7357ZM59.6777 20.694H57.2576L54.805 29.7278L52.3524 20.694H49.9323L52.8062 30.6663C52.9575 31.1932 53.2546 31.5664 53.6922 31.7804C54.0865 31.9725 54.5187 31.9945 54.805 31.9945C55.0967 31.9945 55.5235 31.9725 55.9178 31.7804C56.3554 31.5664 56.6525 31.1932 56.8038 30.6663L59.6777 20.694ZM39.5656 25.5731C39.5656 24.0803 39.1605 22.7906 38.4312 21.9454C37.6155 21.0014 36.4216 20.48 35.0711 20.48C33.7044 20.48 32.5429 20.9849 31.7218 21.9454C30.9979 22.7906 30.5981 24.0803 30.5981 25.5731V31.775H32.9264V25.5731C32.9264 24.6237 33.1101 23.8992 33.4721 23.4272C33.8232 22.9662 34.3634 22.7412 35.0711 22.7357C35.7788 22.7302 36.3676 22.9991 36.6863 23.4162C37.0483 23.8937 37.2427 24.6017 37.2427 25.5731V31.775H39.571C39.5656 31.7695 39.5656 25.5731 39.5656 25.5731ZM73.2424 24.5413L75.1548 25.6116C76.7862 26.5665 77.4507 27.4886 77.4398 28.8168C77.4398 29.876 77.0563 30.7432 76.2946 31.281C75.6193 31.7585 74.6686 32 73.4693 32C72.1512 32 69.8823 31.528 69.8823 31.528V29.3491C69.8823 29.3491 72.4105 29.8266 73.4693 29.8266C74.7604 29.8266 75.0143 29.3601 75.0143 28.8442C75.0143 28.5259 74.8198 28.1856 73.7394 27.5489L71.7946 26.4568C71.114 26.0451 70.617 25.6335 70.2712 25.189C69.8661 24.6621 69.6554 24.0639 69.6554 23.4162C69.6554 22.357 70.0498 21.5776 70.8277 21.0947C71.4597 20.705 72.3349 20.5129 73.5125 20.5129C74.5497 20.5129 75.5869 20.6885 76.5755 20.8697C76.694 20.8891 76.8261 20.9167 76.9047 20.9332C76.9371 20.94 76.9604 20.9449 76.9699 20.9465V23.0924C76.9127 23.0845 76.843 23.0702 76.7602 23.0533C76.6709 23.035 76.5664 23.0136 76.4459 22.9936C76.4459 22.9936 74.6794 22.6808 73.5179 22.6698C72.3078 22.6643 72.1512 23.0321 72.1512 23.4107C72.1512 23.6907 72.3727 24.0364 73.2424 24.5413Z" fill="#5E5E5E"/>
<path fill-rule="evenodd" clip-rule="evenodd" d="M11.4168 6.80321C11.6832 6.93107 11.9655 6.94705 12.1573 6.94705C12.3491 6.94705 12.6315 6.93639 12.8979 6.80321C13.2015 6.65936 13.4093 6.39832 13.5158 6.04138L15.2792 0H13.4626L12.1627 5.11972C11.7791 3.72392 10.8574 0 10.8574 0H9.03543L10.7988 6.04138C10.9 6.39832 11.1078 6.65404 11.4168 6.80321ZM12.8979 17.5168C12.6315 17.3889 12.3491 17.373 12.1573 17.373C11.9709 17.373 11.6885 17.3889 11.4168 17.5168C11.1131 17.6606 10.9054 17.9217 10.7988 18.2786L9.0301 24.32H10.8468L12.152 19.2003C12.5356 20.5961 13.4572 24.32 13.4572 24.32H15.2792L13.5158 18.2786C13.4146 17.9217 13.2069 17.666 12.8979 17.5168ZM17.373 12.1627C17.373 11.9709 17.3889 11.6885 17.5168 11.4221C17.666 11.1131 17.9217 10.9054 18.2786 10.7988L24.32 9.03543V10.8574C24.32 10.8574 20.5961 11.7791 19.2003 12.1627L24.32 13.4679V15.2899L18.2786 13.5212C17.9217 13.4146 17.6606 13.2069 17.5168 12.9032C17.3889 12.6315 17.373 12.3491 17.373 12.1627ZM6.80321 12.9032C6.93107 12.6368 6.94705 12.3545 6.94705 12.1627C6.94705 11.9709 6.93639 11.6885 6.80321 11.4275C6.65936 11.1238 6.39832 10.916 6.04138 10.8095L0 9.04075V10.8574L5.11972 12.1573C3.72392 12.5409 0 13.4626 0 13.4626V15.2846L6.04138 13.5212C6.39832 13.42 6.65404 13.2122 6.80321 12.9032ZM15.844 15.844C15.9771 15.7108 16.1902 15.519 16.4673 15.4231C16.7869 15.3112 17.1172 15.3432 17.4475 15.5243L22.9668 18.5503L21.6829 19.8343C21.6829 19.8343 18.4012 17.8524 17.1385 17.1332L19.8396 21.6776L18.5557 22.9615L15.5296 17.4369C15.3485 17.1119 15.3165 16.7816 15.4284 16.4566C15.5243 16.1902 15.7108 15.9825 15.844 15.844ZM7.85272 8.89691C8.12975 8.80102 8.34285 8.60923 8.47604 8.47604C8.60923 8.34285 8.79569 8.12975 8.89691 7.85272C9.00879 7.52775 8.97682 7.19744 8.79569 6.87246L5.76967 1.35318L4.48575 2.63711L7.18679 7.18679C5.92417 6.46758 2.64244 4.48575 2.64244 4.48575L1.35318 5.76967L6.87246 8.79569C7.20277 8.97682 7.53307 9.00879 7.85272 8.89691ZM8.47071 15.844C8.6039 15.9771 8.79569 16.1902 8.89158 16.4673C9.00346 16.7869 8.9715 17.1172 8.79036 17.4475L5.76435 22.9668L4.48042 21.6829C4.48042 21.6829 6.46225 18.4012 7.18146 17.1385L2.63711 19.8396L1.35318 18.5557L6.87246 15.5243C7.19744 15.3432 7.52775 15.3112 7.85272 15.4231C8.12975 15.5243 8.33752 15.7108 8.47071 15.844ZM15.4231 7.85272C15.519 8.12975 15.7108 8.34285 15.844 8.47604C15.9771 8.60923 16.1902 8.80102 16.462 8.89691C16.7869 9.00879 17.1172 8.97682 17.4422 8.79569L22.9668 5.76967L21.6829 4.48575L17.1385 7.18679C17.8578 5.92417 19.8396 2.64244 19.8396 2.64244L18.5503 1.35318L15.5243 6.87246C15.3432 7.20277 15.3112 7.53307 15.4231 7.85272Z" fill="#5E5E5E"/>
</svg>
