<svg width="74" height="120" viewBox="0 0 74 120" fill="none" xmlns="http://www.w3.org/2000/svg">
<path fill-rule="evenodd" clip-rule="evenodd" d="M64.6154 91.1166C64.6154 104.803 53.1355 115.897 38.9744 115.897C24.8133 115.897 13.3334 104.803 13.3334 91.1166C13.3334 90.829 13.3334 90.5414 13.3499 90.2564H64.6044C64.6099 90.5414 64.6154 90.829 64.6154 91.1166Z" fill="#FF9966"/>
<path fill-rule="evenodd" clip-rule="evenodd" d="M64.6154 91.1166C64.6154 104.803 53.1355 115.897 38.9744 115.897C24.8133 115.897 13.3334 104.803 13.3334 91.1166C13.3334 90.829 13.3334 90.5414 13.3499 90.2564H64.6044C64.6099 90.5414 64.6154 90.829 64.6154 91.1166Z" fill="white" fill-opacity="0.16"/>
<path fill-rule="evenodd" clip-rule="evenodd" d="M13.3334 89.6494C13.35 104.133 25.0401 115.873 39.4707 115.897C53.9142 115.891 65.6244 104.146 65.6411 89.6494C65.6411 89.4958 65.6369 89.3429 65.6328 89.1903C65.6287 89.0384 65.6246 88.8869 65.6246 88.7353C65.6127 88.439 65.3698 88.2049 65.0743 88.2051H13.9001C13.6046 88.2049 13.3617 88.439 13.3499 88.7353C13.3334 89.0391 13.3334 89.3429 13.3334 89.6494ZM14.4339 89.6494V89.3097H64.535V89.6494C64.535 103.536 53.3195 114.793 39.4845 114.793C25.6494 114.793 14.4339 103.536 14.4339 89.6494Z" fill="#372168"/>
<path d="M31.4909 111.795H31.4243C28.135 110.901 26.772 108.37 26.7145 108.262C26.6241 108.09 26.6655 107.861 26.8068 107.751C26.9482 107.64 27.136 107.691 27.2263 107.863C27.2445 107.897 28.5287 110.25 31.5576 111.074C31.7205 111.118 31.8234 111.315 31.7878 111.514C31.7541 111.68 31.6313 111.796 31.4909 111.795Z" fill="#372168"/>
<path d="M64.1353 91.282C63.9141 91.2808 63.722 91.1322 63.6692 90.9213L41.0483 0.61401C40.994 0.446637 41.0391 0.263513 41.1652 0.138949C41.2913 0.0143845 41.4776 -0.0309271 41.6484 0.0214012C41.8191 0.0737296 41.9461 0.215005 41.9777 0.387898L64.6014 90.7005C64.6319 90.8216 64.6121 90.9496 64.5462 91.0562C64.4803 91.1628 64.3739 91.2392 64.2504 91.2685C64.2129 91.2782 64.1741 91.2828 64.1353 91.282Z" fill="#372168"/>
<path d="M13.8088 90.2564C13.6611 90.2563 13.5218 90.1878 13.4318 90.071C13.3419 89.9541 13.3114 89.8022 13.3494 89.6599L34.9666 8.54138C35.0413 8.297 35.2966 8.15547 35.5441 8.22121C35.7916 8.28695 35.9425 8.53636 35.8854 8.78543L14.2682 89.9039C14.2128 90.1116 14.0243 90.2563 13.8088 90.2564Z" fill="#372168"/>
<path fill-rule="evenodd" clip-rule="evenodd" d="M31.3471 60.3992C31.3471 60.3992 26.5486 57.6964 23.44 58.6751C23.44 58.6751 24.6281 60.1043 23.2664 62.0295C23.2664 62.0295 23.1742 59.8442 22.1814 58.8118C22.1814 58.8118 16.1975 57.3612 12.0608 62.067C9.24787 69.5963 14.9605 74.8679 14.9605 74.8679C15.5926 75.1575 17.7463 74.4094 17.7463 74.4094L16.2137 76.3292C19.146 80.9144 24.3786 81.7376 24.3786 81.7376C25.1679 81.3246 26.2611 80.1287 26.2611 80.1287L26.0712 82.0513C34.2984 79.8821 31.1925 73.243 31.1925 73.243C32.2379 73.1262 33.2508 72.8122 34.1763 72.3179C36.5924 70.9698 37.5822 68.0313 36.4658 65.5206C35.8961 64.2094 34.8192 62.6757 32.7957 61.2841C32.7957 61.2841 32.0822 63.2361 30.8969 64.3891C30.9131 64.3891 32.0171 61.9651 31.3471 60.3992Z" fill="#8CC387"/>
<path fill-rule="evenodd" clip-rule="evenodd" d="M31.3471 60.3992C31.3471 60.3992 26.5486 57.6964 23.44 58.6751C23.44 58.6751 24.6281 60.1043 23.2664 62.0295C23.2664 62.0295 23.1742 59.8442 22.1814 58.8118C22.1814 58.8118 16.1975 57.3612 12.0608 62.067C9.24787 69.5963 14.9605 74.8679 14.9605 74.8679C15.5926 75.1575 17.7463 74.4094 17.7463 74.4094L16.2137 76.3292C19.146 80.9144 24.3786 81.7376 24.3786 81.7376C25.1679 81.3246 26.2611 80.1287 26.2611 80.1287L26.0712 82.0513C34.2984 79.8821 31.1925 73.243 31.1925 73.243C32.2379 73.1262 33.2508 72.8122 34.1763 72.3179C36.5924 70.9698 37.5822 68.0313 36.4658 65.5206C35.8961 64.2094 34.8192 62.6757 32.7957 61.2841C32.7957 61.2841 32.0822 63.2361 30.8969 64.3891C30.9131 64.3891 32.0171 61.9651 31.3471 60.3992Z" fill="black" fill-opacity="0.1"/>
<path fill-rule="evenodd" clip-rule="evenodd" d="M25.7146 82.9017C25.8217 83.0134 25.9734 83.0768 26.1322 83.0761C26.1792 83.0784 26.2263 83.0758 26.2726 83.0681C29.1612 82.3315 31.0887 81.0165 32.0047 79.1577C32.9657 77.2025 32.533 75.1911 32.1986 74.1813C33.1077 74.0134 33.9849 73.7154 34.8005 73.2975C37.5717 71.8287 38.7079 68.5864 37.4193 65.8249C36.6466 64.1135 35.3035 62.6109 33.4237 61.3655C33.2793 61.2733 33.0982 61.25 32.9333 61.3024C32.7684 61.3548 32.6383 61.477 32.5807 61.6333C32.5807 61.6387 32.5049 61.8288 32.37 62.1208C32.3807 61.6463 32.2919 61.1746 32.1087 60.7334C32.0629 60.621 31.9788 60.5267 31.8699 60.4656C31.6619 60.3504 26.6464 57.664 23.2324 58.6978C23.0566 58.7521 22.92 58.8853 22.8671 59.0541C22.8124 59.2225 22.8481 59.4058 22.9627 59.5442C23.1053 59.7302 23.2075 59.9414 23.2633 60.1656C23.0942 59.729 22.8407 59.3265 22.5159 58.9791C22.4399 58.903 22.3422 58.8499 22.2349 58.8264C21.968 58.7648 15.6486 57.3533 11.1922 62.2466C11.1474 62.2951 11.113 62.3515 11.0911 62.4127C8.08173 70.1772 14.1735 75.7214 14.2353 75.775C14.2794 75.8143 14.3296 75.8468 14.3842 75.8714C14.7607 76.0267 15.3789 75.9865 15.9999 75.8714L15.4772 76.5008C15.3293 76.6793 15.3158 76.9273 15.4435 77.1195C18.5793 81.8494 24.0557 82.7306 24.2861 82.7654C24.4065 82.7847 24.5302 82.7649 24.6373 82.7092C24.9886 82.5183 25.3174 82.2921 25.618 82.0342L25.5702 82.4896C25.5551 82.6402 25.6076 82.7899 25.7146 82.9017ZM26.5564 80.1299C26.485 80.099 26.4073 80.0835 26.3288 80.0844C26.1755 80.0857 26.0293 80.1466 25.9242 80.2531C25.4332 80.7776 24.885 81.2507 24.2889 81.6646C23.3532 81.4611 19.1947 80.4272 16.6265 76.8436L17.9611 75.2366C18.1168 75.0497 18.1239 74.7872 17.9786 74.5928C17.8333 74.3985 17.5707 74.3191 17.3345 74.3983C16.3708 74.7224 15.2777 74.9393 14.9321 74.8911C14.2044 74.2001 9.6131 69.4862 12.1223 62.8546C15.7835 58.9121 20.8131 59.6246 21.8106 59.812C22.4288 60.5754 22.6311 62.027 22.6536 62.5627C22.6635 62.7925 22.8263 62.9906 23.0579 63.055C23.2896 63.1193 23.5385 63.0354 23.6764 62.8466C24.6233 61.5503 24.5474 60.3584 24.2383 59.5549C26.829 59.2121 30.3076 60.87 31.1281 61.2824C31.4849 62.3913 30.9005 64.084 30.6195 64.6705C30.5093 64.9057 30.5903 65.1823 30.8124 65.3291C31.0344 65.4759 31.3346 65.4513 31.5271 65.2705C32.2891 64.4943 32.9042 63.5981 33.345 62.6216C34.6646 63.5574 35.7112 64.7993 36.3853 66.2293C37.4157 68.4841 36.5003 71.1168 34.261 72.3386C33.3683 72.7931 32.3944 73.0847 31.3894 73.1984C31.205 73.213 31.0401 73.3132 30.9482 73.4662C30.8552 73.6175 30.8458 73.8026 30.9229 73.9617L30.9232 73.9623C30.947 74.013 32.0885 76.4464 30.9876 78.689C30.3076 80.0817 28.8886 81.1263 26.7728 81.7959L26.888 80.6656C26.9087 80.4379 26.7755 80.2228 26.5564 80.1299Z" fill="#372168"/>
<path d="M31.3498 74.8718C31.2167 74.8719 31.0907 74.8176 31.0073 74.7244C30.9663 74.6796 28.0945 71.5521 18.7267 67.4241C18.578 67.3664 18.4766 67.2397 18.4631 67.0946C18.4495 66.9494 18.526 66.8093 18.662 66.7301C18.7979 66.6509 18.9714 66.6455 19.1131 66.716C28.718 70.9466 31.5781 74.0873 31.7011 74.2294C31.8049 74.3488 31.8242 74.5109 31.7508 74.6473C31.6774 74.7838 31.5242 74.8708 31.3556 74.8718H31.3498Z" fill="#372168"/>
<path d="M27.9532 78.9744C27.8781 78.9742 27.8068 78.9387 27.7572 78.8767C27.6621 78.7577 27.6727 78.5765 27.7807 78.4718C27.8017 78.4517 29.7926 76.4931 29.0506 74.2386C29.0157 74.1414 29.0317 74.031 29.0923 73.9504C29.1529 73.8698 29.2485 73.8318 29.342 73.8511C29.4354 73.8704 29.512 73.9441 29.5418 74.0434C30.4066 76.6711 28.2171 78.8135 28.1256 78.9054C28.0776 78.9506 28.0164 78.975 27.9532 78.9744Z" fill="#372168"/>
<path d="M23.9145 76.9231C23.788 76.9224 23.6733 76.8712 23.6201 76.7916C23.5835 76.7369 23.5798 76.6744 23.6099 76.6178C23.64 76.5612 23.7013 76.5153 23.7804 76.4902C23.9636 76.4312 28.2716 75.001 28.0557 71.0051C28.0484 70.88 28.189 70.7744 28.3697 70.7694C28.5503 70.7644 28.7026 70.8618 28.7099 70.987C28.8309 73.2331 27.565 74.72 26.479 75.5722C25.8012 76.1193 24.977 76.5703 24.0519 76.9004C24.0095 76.9156 23.9623 76.9233 23.9145 76.9231Z" fill="#372168"/>
<path d="M34.1843 70.7692C34.0933 70.7688 34.0063 70.7226 33.9435 70.6413C33.8138 70.4804 33.8138 70.2204 33.9435 70.0595C34.6174 69.224 35.068 68.1542 35.2348 66.9937C35.2533 66.8864 35.3056 66.7925 35.3803 66.7329C35.455 66.6732 35.5459 66.6528 35.6329 66.676C35.8126 66.7235 35.9277 66.9409 35.8905 67.1629C35.6955 68.484 35.1785 69.7003 34.4085 70.6496C34.3487 70.7229 34.2686 70.7656 34.1843 70.7692Z" fill="#372168"/>
<path d="M29.2178 62.5641H29.1488C29.0485 62.5465 28.9594 62.4901 28.9011 62.4074C28.8428 62.3247 28.8201 62.2224 28.8379 62.1231C29.0545 61.0726 29.0191 59.9865 28.7343 58.9521C28.7046 58.8548 28.7155 58.7498 28.7645 58.6605C28.8136 58.5712 28.8967 58.505 28.9953 58.4768C29.1987 58.4181 29.4118 58.5338 29.4711 58.7354C29.7867 59.8837 29.8287 61.089 29.5939 62.2561C29.559 62.4347 29.4014 62.5638 29.2178 62.5641Z" fill="#372168"/>
<path d="M27.9545 67.6923C27.8523 67.6913 27.7598 67.6206 27.7168 67.5107C27.6738 67.4009 27.6881 67.2715 27.7535 67.1784C28.4159 66.1821 28.9139 65.0468 29.2215 63.832C29.2434 63.7205 29.3149 63.632 29.408 63.6013C29.5011 63.5705 29.601 63.6024 29.6684 63.6844C29.7359 63.7664 29.7603 63.8855 29.7319 63.9949C29.4037 65.3002 28.8647 66.5175 28.145 67.5795C28.0976 67.6471 28.0286 67.688 27.9545 67.6923Z" fill="#372168"/>
<path d="M17.0902 64.6154C17.0266 64.615 16.9644 64.5999 16.9103 64.5717C16.8826 64.5717 14.1776 63.1907 12.6418 63.147C12.4507 63.1414 12.3013 63.0063 12.308 62.8454C12.3146 62.6845 12.4749 62.5587 12.666 62.5643C14.3955 62.6138 17.1628 64.021 17.2701 64.0735C17.3487 64.1139 17.405 64.179 17.4265 64.2545C17.4479 64.33 17.4327 64.4095 17.3842 64.4755C17.3217 64.562 17.2104 64.615 17.0902 64.6154Z" fill="#372168"/>
<path d="M13.6779 73.8454C13.4996 73.8571 13.3457 73.7208 13.3341 73.5409C13.3225 73.361 13.4576 73.2057 13.6359 73.194C13.6585 73.194 15.8958 72.8846 16.8837 71.8911C16.965 71.8085 17.0838 71.7759 17.1954 71.8057C17.307 71.8354 17.3944 71.9229 17.4246 72.0353C17.4549 72.1477 17.4234 72.2678 17.3421 72.3504C16.2025 73.5067 13.8199 73.8292 13.7199 73.8422L13.6779 73.8454Z" fill="#372168"/>
<path d="M19.2805 61.5385C19.1702 61.5387 19.0788 61.4527 19.0722 61.3424C19.0186 60.7956 18.8233 60.2723 18.5055 59.8242C18.4348 59.7332 18.4511 59.6021 18.542 59.5312C18.6329 59.4604 18.7639 59.4767 18.8347 59.5677C19.2052 60.0809 19.4305 60.6847 19.4868 61.3153C19.4939 61.4298 19.4074 61.5286 19.293 61.5364L19.2805 61.5385Z" fill="#372168"/>
<path d="M18.8704 78.9743C18.6502 78.9791 18.4672 78.8265 18.4617 78.6335C18.4562 78.4405 18.6302 78.2802 18.8505 78.2753C18.8784 78.2753 19.9551 78.195 21.921 76.9963C22.0375 76.9172 22.1944 76.9008 22.3288 76.9538C22.4633 77.0068 22.5534 77.1204 22.5632 77.2493C22.573 77.3782 22.5009 77.5013 22.3756 77.5695C20.1704 78.9148 18.9382 78.9673 18.8864 78.9673L18.8704 78.9743Z" fill="#372168"/>
<path d="M27.9289 69.7436C27.8244 69.7443 27.732 69.6833 27.7021 69.5939C27.6722 69.5046 27.712 69.4083 27.7997 69.3577C27.8115 69.3577 28.9975 68.6426 29.2841 67.8394C29.323 67.7288 29.455 67.6673 29.5788 67.702C29.7027 67.7368 29.7716 67.8546 29.7327 67.9652C29.3968 68.9131 28.1121 69.6765 28.0581 69.7079C28.0203 69.7316 27.9751 69.744 27.9289 69.7436Z" fill="#372168"/>
<path d="M20.7334 71.7949C20.6421 71.7959 20.5599 71.7229 20.5273 71.6118C20.4946 71.5007 20.5184 71.3748 20.5869 71.2961C20.6065 71.2733 22.5898 68.9508 22.0256 67.0671C21.9931 66.9714 22.0034 66.86 22.0526 66.7772C22.1018 66.6944 22.1819 66.6534 22.2612 66.6705C22.3406 66.6876 22.4063 66.76 22.4324 66.8591C23.108 69.1132 20.9695 71.6182 20.8777 71.7236C20.8378 71.7694 20.7865 71.7948 20.7334 71.7949Z" fill="#372168"/>
<path fill-rule="evenodd" clip-rule="evenodd" d="M61.3763 108.382C61.3763 108.382 60.8104 112.807 58.6678 114.332C58.6678 114.332 58.3111 112.864 56.3991 112.794C56.3991 112.794 57.7775 113.929 57.9706 115.071C57.9706 115.071 56.0156 119.642 50.9473 120C44.6802 118.118 44.0179 111.837 44.0179 111.837C44.1359 111.286 45.6671 110.264 45.6671 110.264L43.6746 110.309C42.1112 106.163 44.109 102.383 44.109 102.383C44.7634 102.076 46.0774 101.961 46.0774 101.961L44.7365 101.138C50.1374 96.8977 52.9559 102.165 52.9559 102.165C53.539 101.546 54.2355 101.046 55.0073 100.692C57.0557 99.7931 59.4498 100.599 60.5423 102.555C61.2824 103.915 61.6218 105.459 61.5211 107.005C61.5211 107.005 59.9121 106.508 58.5713 106.704C58.5739 106.704 60.6817 107.19 61.3763 108.382Z" fill="#8CC387"/>
<path fill-rule="evenodd" clip-rule="evenodd" d="M61.3763 108.382C61.3763 108.382 60.8104 112.807 58.6678 114.332C58.6678 114.332 58.3111 112.864 56.3991 112.794C56.3991 112.794 57.7775 113.929 57.9706 115.071C57.9706 115.071 56.0156 119.642 50.9473 120C44.6802 118.118 44.0179 111.837 44.0179 111.837C44.1359 111.286 45.6671 110.264 45.6671 110.264L43.6746 110.309C42.1112 106.163 44.109 102.383 44.109 102.383C44.7634 102.076 46.0774 101.961 46.0774 101.961L44.7365 101.138C50.1374 96.8977 52.9559 102.165 52.9559 102.165C53.539 101.546 54.2355 101.046 55.0073 100.692C57.0557 99.7931 59.4498 100.599 60.5423 102.555C61.2824 103.915 61.6218 105.459 61.5211 107.005C61.5211 107.005 59.9121 106.508 58.5713 106.704C58.5739 106.704 60.6817 107.19 61.3763 108.382Z" fill="white" fill-opacity="0.09"/>
<path fill-rule="evenodd" clip-rule="evenodd" d="M51.3235 119.978C51.3741 119.992 51.4263 120 51.4787 120L51.5161 119.994C56.8375 119.607 58.8923 114.713 58.9779 114.505C59.0185 114.405 59.0306 114.295 59.0127 114.188C59.0096 114.168 59.0046 114.149 58.9996 114.129C58.9915 114.097 58.9832 114.064 58.9832 114.033C59.1495 114.099 59.3359 114.073 59.4809 113.966C61.7817 112.252 62.3783 107.563 62.4024 107.364C62.4178 107.241 62.3943 107.117 62.3355 107.01C62.2077 106.783 62.0501 106.576 61.8673 106.395C62.0233 106.44 62.1905 106.409 62.3221 106.31C62.4572 106.21 62.5402 106.049 62.5469 105.875C62.6501 104.154 62.2874 102.438 61.5008 100.925C60.2824 98.6176 57.587 97.6702 55.2912 98.7422C54.6632 99.0462 54.0802 99.4435 53.5602 99.9221C53.0224 99.158 51.9041 97.9107 50.2373 97.5427C48.5705 97.1746 46.7887 97.759 44.9373 99.2816C44.7993 99.3952 44.7231 99.5725 44.7332 99.7563C44.7434 99.9401 44.8386 100.107 44.9881 100.203L45.1005 100.273C44.8663 100.331 44.6378 100.412 44.4183 100.515C44.3142 100.567 44.2288 100.652 44.1748 100.759C44.0865 100.931 42.0853 104.987 43.712 109.505C43.7884 109.731 43.9971 109.878 44.2256 109.867H44.6163C44.3453 110.114 44.1437 110.433 44.033 110.791C44.0237 110.85 44.0237 110.91 44.033 110.968L44.0331 110.969C44.0452 111.075 44.8237 117.927 51.3235 119.978ZM45.1146 110.987C45.1143 110.985 45.1141 110.984 45.1139 110.982V110.988C45.1141 110.988 45.1143 110.987 45.1146 110.987ZM51.5349 118.871C46.212 117.135 45.2456 111.925 45.1146 110.987C45.5252 110.501 46.0019 110.081 46.5292 109.741C46.728 109.602 46.8153 109.342 46.7432 109.103C46.6774 108.854 46.4531 108.689 46.2081 108.71L44.6029 108.749C43.5407 105.355 44.7233 102.237 45.0523 101.476C45.5761 101.314 46.1138 101.208 46.6576 101.158C46.888 101.137 47.0796 100.963 47.1326 100.727C47.1855 100.491 47.0878 100.245 46.8904 100.119L46.2322 99.6974C47.5833 98.7506 48.8514 98.3995 50.0126 98.6523C51.9442 99.0737 52.9983 101.057 52.9983 101.077C53.0816 101.238 53.2348 101.347 53.4086 101.368C53.5824 101.388 53.7549 101.319 53.8705 101.181C54.404 100.592 55.0396 100.115 55.7433 99.776C57.5366 98.9681 59.6215 99.708 60.5804 101.492C61.1693 102.611 61.4829 103.866 61.4928 105.145C60.6783 104.948 59.8382 104.896 59.0073 104.99C58.7522 105.029 58.5599 105.254 58.5501 105.525C58.5403 105.795 58.7156 106.035 58.9672 106.094C59.4514 106.212 60.7731 106.673 61.3242 107.431C61.2011 108.221 60.6875 111.123 59.3498 112.614C58.787 111.811 57.8915 111.34 56.9419 111.347C56.7132 111.34 56.505 111.485 56.424 111.71C56.343 111.935 56.4071 112.189 56.5834 112.342C56.8911 112.617 57.7071 113.454 57.9211 114.224C57.5439 115.011 55.6416 118.52 51.5349 118.871Z" fill="#372168"/>
<path d="M51.7636 112.819C51.7336 112.821 51.7035 112.821 51.6736 112.819C51.5477 112.8 51.4366 112.742 51.3648 112.658C51.2931 112.574 51.2665 112.471 51.291 112.372C53.0527 105.135 52.1108 102.044 52.1011 102.014C52.0354 101.81 52.1916 101.602 52.4499 101.55C52.7082 101.498 52.9709 101.622 53.0366 101.826C53.0784 101.953 54.0493 105.074 52.2361 112.516C52.1901 112.693 51.9922 112.82 51.7636 112.819Z" fill="#372168"/>
<path d="M51.9616 102.564C51.8449 102.565 51.7359 102.513 51.6717 102.427C50.4085 100.714 47.6301 101.208 47.6025 101.208C47.4792 101.23 47.3518 101.192 47.2682 101.109C47.1847 101.026 47.1577 100.91 47.1975 100.805C47.2373 100.699 47.3377 100.62 47.461 100.598C47.5922 100.574 50.7295 100.022 52.2515 102.076C52.3019 102.145 52.3193 102.228 52.2999 102.307C52.2804 102.387 52.2257 102.456 52.148 102.5C52.0944 102.537 52.0295 102.559 51.9616 102.564Z" fill="#372168"/>
<path d="M52.0847 105.641C52.0281 105.641 51.9734 105.618 51.9299 105.577C49.2276 103.077 46.6432 104.585 46.5253 104.649C46.448 104.699 46.3533 104.698 46.2766 104.647C46.2 104.597 46.1532 104.503 46.1538 104.403C46.1544 104.302 46.2024 104.21 46.2796 104.16C46.8591 103.843 47.4871 103.654 48.1295 103.605C49.6172 103.49 51.0854 104.04 52.2173 105.138C52.2679 105.185 52.3 105.252 52.3065 105.326C52.3129 105.399 52.2932 105.473 52.2517 105.53C52.2119 105.591 52.1515 105.631 52.0847 105.641Z" fill="#372168"/>
<path d="M57.2143 102.564C57.181 102.564 57.1482 102.554 57.1185 102.533C56.6641 102.216 56.1505 102.097 55.6459 102.192C55.5229 102.22 55.4072 102.104 55.3875 101.934C55.3678 101.765 55.4516 101.605 55.5746 101.578C56.1679 101.463 56.7726 101.6 57.3078 101.971C57.4192 102.043 57.467 102.226 57.4148 102.38C57.3799 102.49 57.3015 102.562 57.2143 102.564Z" fill="#372168"/>
<path d="M61.2667 110.769C61.1794 110.77 61.0973 110.721 61.0458 110.639C60.6655 110.073 60.1772 109.616 59.6193 109.306C59.4969 109.221 59.4521 109.04 59.5166 108.892C59.581 108.744 59.7329 108.679 59.8648 108.742C60.4994 109.096 61.0541 109.616 61.4849 110.263C61.528 110.33 61.5462 110.415 61.5354 110.498C61.5247 110.581 61.4859 110.656 61.4276 110.706C61.3812 110.746 61.3248 110.769 61.2667 110.769Z" fill="#372168"/>
<path d="M58.1039 107.692C58.0609 107.692 58.0182 107.686 57.9782 107.673C56.935 107.357 55.8283 107.205 54.7162 107.225C54.6261 107.229 54.5378 107.203 54.4709 107.154C54.4039 107.104 54.3638 107.035 54.3594 106.961C54.3548 106.885 54.3885 106.811 54.4527 106.756C54.517 106.7 54.6061 106.669 54.6992 106.669C55.9089 106.644 57.1133 106.809 58.2466 107.156C58.3985 107.205 58.4862 107.335 58.4555 107.467C58.4247 107.598 58.2842 107.693 58.1209 107.692H58.1039Z" fill="#372168"/>
<path d="M50.4615 118.974C50.419 118.975 50.3775 118.955 50.3427 118.917C50.2508 118.815 50.2288 118.616 50.2935 118.472C50.7032 117.534 50.8712 115.184 50.8732 115.158C50.8851 114.984 50.9847 114.857 51.0965 114.873C51.1509 114.881 51.2011 114.923 51.2357 114.989C51.2703 115.055 51.2866 115.14 51.2809 115.225C51.2809 115.328 51.1088 117.767 50.6295 118.84C50.5908 118.925 50.5281 118.975 50.4615 118.974Z" fill="#372168"/>
<path d="M43.4799 114.871C43.3746 114.871 43.2736 114.841 43.1978 114.787C43.1204 114.731 43.0769 114.654 43.0769 114.574C43.0769 114.494 43.1204 114.417 43.1978 114.36C43.2714 114.306 45.0333 112.995 46.7094 112.823C46.9352 112.8 47.1438 112.916 47.1754 113.082C47.207 113.248 47.0496 113.402 46.8239 113.425C45.4217 113.566 43.7988 114.775 43.7824 114.787C43.7016 114.845 43.5922 114.875 43.4799 114.871Z" fill="#372168"/>
<path d="M56.0501 116.923C55.8818 116.927 55.7318 116.846 55.6881 116.726C55.4568 116.192 55.0387 115.711 54.4755 115.333C54.3318 115.236 54.3194 115.072 54.4476 114.963C54.5757 114.855 54.798 114.841 54.9497 114.932C55.6259 115.378 56.126 115.95 56.3975 116.588C56.4229 116.656 56.4101 116.729 56.3618 116.791C56.3136 116.852 56.2339 116.897 56.1405 116.915C56.1109 116.92 56.0805 116.923 56.0501 116.923Z" fill="#372168"/>
<path d="M42.2906 105.641C42.2345 105.641 42.1802 105.626 42.137 105.598C42.0362 105.532 42.0223 105.414 42.1058 105.335C42.1466 105.297 42.5404 104.944 43.7866 104.625C43.8681 104.604 43.9578 104.618 44.022 104.663C44.0861 104.708 44.1149 104.776 44.0976 104.841C44.0802 104.907 44.0194 104.961 43.9379 104.982C42.8285 105.265 42.4803 105.572 42.4779 105.575C42.4312 105.618 42.3625 105.642 42.2906 105.641Z" fill="#372168"/>
<path d="M52.7006 105.641C52.5336 105.64 52.3851 105.548 52.33 105.411C52.2587 105.233 52.3641 105.038 52.5665 104.974C52.6533 104.946 54.6674 104.331 56.114 104.778C56.2583 104.81 56.3695 104.911 56.4012 105.038C56.433 105.165 56.38 105.296 56.2642 105.378C56.1484 105.46 55.9896 105.478 55.8538 105.424C54.6714 105.056 52.8385 105.614 52.8188 105.62C52.7808 105.633 52.741 105.639 52.7006 105.641Z" fill="#372168"/>
<path d="M53.0078 110.769C52.8946 110.769 52.7898 110.704 52.731 110.599C51.7541 108.893 48.6279 109.557 48.5954 109.564C48.5103 109.583 48.4218 109.564 48.3496 109.511C48.2775 109.459 48.2276 109.377 48.2111 109.284C48.1771 109.092 48.2904 108.907 48.4651 108.868C48.6116 108.836 52.0797 108.096 53.2846 110.225C53.3302 110.306 53.3445 110.403 53.3244 110.495C53.3042 110.587 53.2512 110.667 53.1771 110.716C53.1262 110.75 53.0676 110.769 53.0078 110.769Z" fill="#372168"/>
<path fill-rule="evenodd" clip-rule="evenodd" d="M71.9898 74.6535C71.9898 74.6535 74.8414 80.3824 73.476 83.9023C73.476 83.9023 71.8746 82.4324 69.5146 83.8717C69.5146 83.8717 72.0825 84.131 73.2259 85.3388C73.2259 85.3388 74.5239 92.3507 68.6999 96.8022C59.6449 99.53 53.8349 92.5683 53.8349 92.5683C53.5371 91.818 54.5682 89.383 54.5682 89.383L52.2026 91.0203C47.0079 87.3191 46.3982 81.2192 46.3982 81.2192C46.9405 80.335 48.4323 79.1524 48.4323 79.1524L46.1538 79.2389C49.2751 69.8868 56.8748 73.9395 56.8748 73.9395C57.0834 72.7382 57.5221 71.5878 58.1671 70.5506C59.9195 67.859 63.4386 66.9193 66.3146 68.3751C67.8177 69.1226 69.5483 70.4725 71.0486 72.9047C71.0486 72.9047 68.6999 73.5964 67.2614 74.885C67.2726 74.8738 70.2029 73.7833 71.9898 74.6535Z" fill="#8CC387"/>
<path fill-rule="evenodd" clip-rule="evenodd" d="M52.9121 92.5603C52.9625 92.6194 57.2151 97.4359 64.0265 97.4359C65.4843 97.4268 66.9327 97.2095 68.3239 96.7912C68.3887 96.7723 68.4494 96.7422 68.503 96.7025C74.511 92.2782 73.2792 85.4389 73.2232 85.1514C73.2033 85.0506 73.1537 84.9574 73.0804 84.8828C72.5316 84.3737 71.8676 83.993 71.1403 83.7707C71.6496 83.7868 72.1402 83.9591 72.5401 84.2623C72.6764 84.3827 72.8659 84.4306 73.0463 84.3903C73.2268 84.3499 73.3747 84.2266 73.4415 84.0608C74.8721 80.4907 72.0585 74.9569 71.9382 74.7205C71.8836 74.6143 71.7941 74.5284 71.6834 74.4761C71.0787 74.2141 70.4205 74.0856 69.7573 74.1C70.2864 73.8958 70.6699 73.7857 70.6699 73.7857C70.8364 73.7371 70.9699 73.617 71.0311 73.4606C71.0952 73.3061 71.0786 73.1314 70.9863 72.9905C69.6537 70.8952 68.0047 69.3613 66.045 68.4238C62.9205 66.8699 59.0765 67.8646 57.1899 70.7152C56.6344 71.5775 56.2217 72.5173 55.9664 73.5009C54.8466 73.0819 52.4781 72.4372 50.0873 73.3505C47.8644 74.2021 46.2042 76.1711 45.1572 79.204C45.0985 79.3719 45.13 79.5568 45.2412 79.6982C45.3522 79.8387 45.5279 79.9181 45.7115 79.9105L46.4282 79.8836C46.0604 80.2195 45.7335 80.5944 45.4539 81.0011C45.3891 81.1004 45.3615 81.2178 45.3755 81.3342C45.4007 81.584 46.0726 87.4912 51.3919 91.1553C51.5851 91.2856 51.8426 91.2856 52.0358 91.1553L52.9653 90.5321C52.7609 91.2467 52.6405 91.9746 52.8225 92.4125C52.8445 92.4658 52.8747 92.5156 52.9121 92.5603ZM67.8955 95.808C59.8411 98.0994 54.561 92.7349 53.8499 91.9585H53.8555C53.8023 91.5824 54.1299 90.4193 54.6394 89.3662C54.737 89.145 54.6696 88.8885 54.4744 88.738C54.2792 88.5876 54.0037 88.5797 53.7995 88.7188L51.7726 90.062C47.6404 87.0238 46.711 82.3845 46.5598 81.4148C47.0906 80.7878 47.6915 80.2185 48.3515 79.717C48.5408 79.5725 48.612 79.3276 48.5279 79.1099C48.4429 78.8867 48.2152 78.7436 47.968 78.758L46.529 78.8118C47.4612 76.5069 48.8051 75.0214 50.524 74.3579C53.2508 73.3048 56.098 74.7286 56.1232 74.742C56.2848 74.8255 56.4789 74.8277 56.6425 74.7479C56.8062 74.668 56.9186 74.5163 56.9435 74.3418C57.1407 73.26 57.5512 72.2243 58.1529 71.2901C59.7354 68.9115 62.9496 68.0872 65.5579 69.3909C67.2285 70.2293 68.6444 71.4685 69.6677 72.9879C68.825 73.2914 67.4 73.8931 66.3753 74.7796C66.1822 74.952 66.1406 75.2303 66.2756 75.4478C66.4105 75.6653 66.6853 75.7629 66.9353 75.6822C67.6604 75.4216 69.7181 74.8898 71.0199 75.3733C71.437 76.2463 73.2288 80.2221 72.5933 83.0346C71.703 82.6317 70.2808 82.4383 68.6738 83.3812C68.4677 83.5014 68.365 83.7349 68.419 83.9605C68.473 84.1862 68.6716 84.3532 68.9118 84.3751C69.5361 84.4342 71.2747 84.7592 72.1397 85.5087C72.2769 86.5268 72.7808 92.1358 67.8955 95.808Z" fill="#372168"/>
<path d="M64.2289 88.2035C64.0723 88.2043 63.9307 88.105 63.8701 87.9521C59.8616 77.8088 56.5733 74.5871 56.5397 74.5625C56.3801 74.4116 56.3662 74.1522 56.5087 73.9832C56.6513 73.8142 56.8963 73.7995 57.0559 73.9504C57.1953 74.0843 60.4914 77.2923 64.5825 87.6406C64.6246 87.742 64.6264 87.8569 64.5875 87.9597C64.5487 88.0625 64.4725 88.1444 64.376 88.1871C64.3285 88.2026 64.2785 88.2082 64.2289 88.2035Z" fill="#372168"/>
<path d="M50.5637 78.9743C50.4395 78.9749 50.3273 78.911 50.2797 78.8126C50.2321 78.7142 50.2586 78.6008 50.3467 78.5258C50.4628 78.4261 53.1758 76.1051 56.2249 77.2302C56.3801 77.2874 56.452 77.4418 56.3853 77.5751C56.3187 77.7083 56.1388 77.77 55.9835 77.7128C53.3133 76.7266 50.8081 78.872 50.7897 78.8956C50.7304 78.9476 50.6485 78.9761 50.5637 78.9743Z" fill="#372168"/>
<path d="M52.573 83.0769C52.4802 83.0777 52.3939 83.0185 52.3458 82.9209C52.2977 82.8233 52.295 82.7018 52.3386 82.6011C52.3623 82.5493 54.6926 77.3408 60.2746 78.0077C60.3686 78.0192 60.4506 78.0916 60.4894 78.1976C60.5283 78.3035 60.5183 78.4269 60.4631 78.5213C60.4079 78.6156 60.316 78.6667 60.2219 78.6551C58.0312 78.3961 56.1197 79.0273 54.5372 80.5358C53.8445 81.1871 53.2569 81.9919 52.8047 82.9086C52.7584 83.0126 52.6695 83.0772 52.573 83.0769Z" fill="#372168"/>
<path d="M60.8763 72.8202C60.7747 72.8199 60.6779 72.7811 60.6088 72.713C60.4727 72.5768 60.4825 72.3656 60.6308 72.2405C61.626 71.43 62.8689 70.9177 64.192 70.7728C64.3943 70.7459 64.5822 70.8742 64.6115 71.0593C64.6408 71.2444 64.5006 71.4161 64.2982 71.443C63.1209 71.5717 62.0142 72.0252 61.1254 72.7432C61.0557 72.7962 60.9669 72.8236 60.8763 72.8202Z" fill="#372168"/>
<path d="M71.4496 78.9678C71.4095 78.9678 71.3698 78.9612 71.3321 78.9483C70.2856 78.619 69.1724 78.5231 68.0799 78.668C67.889 78.6887 67.7165 78.5596 67.6946 78.3797C67.6726 78.1997 67.8096 78.037 68.0004 78.0163C69.2 77.8617 70.4213 77.9732 71.5671 78.3422C71.7247 78.3961 71.8186 78.549 71.7896 78.7047C71.7607 78.8605 71.6173 78.9742 71.4496 78.9744V78.9678Z" fill="#372168"/>
<path d="M64.9579 78.9737C64.8096 78.9726 64.6788 78.8991 64.6326 78.7909C64.5864 78.6827 64.6352 78.564 64.7538 78.4957C66.1293 77.7527 67.6789 77.2207 69.3174 76.9289C69.441 76.909 69.569 76.9412 69.6533 77.0134C69.7376 77.0856 69.7653 77.1868 69.726 77.2789C69.6867 77.3711 69.5863 77.4401 69.4627 77.46C67.9221 77.739 66.4641 78.2391 65.1655 78.9339C65.1035 78.9637 65.0309 78.9776 64.9579 78.9737Z" fill="#372168"/>
<path d="M67.3906 97.4359C67.2244 97.4359 67.0897 97.2987 67.0897 97.1295C67.1288 95.5974 65.6939 92.7936 65.6789 92.763C65.6258 92.6658 65.6287 92.547 65.6862 92.4525C65.7438 92.358 65.8471 92.3027 65.9561 92.308C66.0652 92.3133 66.1628 92.3784 66.2113 92.478C66.2715 92.6006 67.7335 95.4442 67.6914 97.1448C67.6834 97.308 67.551 97.4361 67.3906 97.4359Z" fill="#372168"/>
<path d="M55.6589 95.3846H55.6072C55.536 95.37 55.473 95.3247 55.4321 95.2587C55.3913 95.1927 55.3759 95.1115 55.3894 95.0329C55.4085 94.9277 55.8413 92.4689 56.9845 91.3568C57.0972 91.2474 57.269 91.2595 57.3682 91.3838C57.4673 91.5084 57.4563 91.698 57.3437 91.8077C56.3421 92.7876 55.9284 95.1141 55.9256 95.1441C55.8998 95.2841 55.7883 95.3846 55.6589 95.3846Z" fill="#372168"/>
<path d="M71.4082 91.2821C71.3141 91.2819 71.2232 91.2505 71.1527 91.1936C70.2517 90.5305 69.1754 90.0961 68.0322 89.9342C67.93 89.9227 67.8369 89.8745 67.7737 89.8001C67.7104 89.7257 67.6823 89.6314 67.6954 89.538C67.7235 89.3447 67.9174 89.2087 68.129 89.2338C69.4252 89.4061 70.6464 89.895 71.6637 90.6488C71.8239 90.7779 71.8395 91.001 71.6986 91.1476C71.6281 91.2292 71.5219 91.2784 71.4082 91.2821Z" fill="#372168"/>
<path d="M49.5311 89.2308H49.4982C49.3352 89.2091 49.2164 89.0273 49.2321 88.8231C49.2321 88.7708 49.3517 87.488 50.7482 85.2703C50.7976 85.1921 50.8699 85.1418 50.9491 85.1306C51.0282 85.1194 51.1077 85.1481 51.1699 85.2104C51.2981 85.3389 51.3195 85.5727 51.2177 85.734C49.9468 87.7498 49.8272 88.8904 49.8272 88.9017C49.8091 89.0891 49.6821 89.2302 49.5311 89.2308Z" fill="#372168"/>
<path d="M59.854 78.9744C59.7746 78.9744 59.6974 78.9584 59.6339 78.929C59.4719 78.8538 59.439 78.7116 59.5606 78.6113C59.6266 78.5546 61.2514 77.2227 63.1329 76.93C63.26 76.9101 63.3946 76.9337 63.486 76.9919C63.5773 77.0501 63.6116 77.134 63.5758 77.212C63.5401 77.29 63.4398 77.3503 63.3127 77.3702C61.6805 77.6243 60.1621 78.87 60.1474 78.8836C60.0781 78.9407 59.9694 78.9744 59.854 78.9744Z" fill="#372168"/>
<path d="M58.7651 87.1795C58.6849 87.1798 58.6078 87.1571 58.5508 87.1165C58.4937 87.0756 58.4615 87.0201 58.4615 86.9621C58.4615 86.9042 58.4937 86.8486 58.5508 86.8078C58.6836 86.7122 61.8408 84.4648 64.4396 85.3233C64.5378 85.3559 64.6043 85.4238 64.6141 85.5013C64.624 85.5788 64.5757 85.6542 64.4874 85.699C64.3991 85.7439 64.2842 85.7515 64.1861 85.7189C61.9676 84.9864 59.0066 87.0947 58.9794 87.1165C58.9225 87.1571 58.8454 87.1798 58.7651 87.1795Z" fill="#372168"/>
<path fill-rule="evenodd" clip-rule="evenodd" d="M28.8518 94.0678C28.8518 94.0678 25.2758 98.8387 21.8707 99.1186C21.8707 99.1186 22.4498 97.1598 20.3602 95.7355C20.3602 95.7355 21.1421 98.0273 20.6004 99.4935C20.6004 99.4935 15.3726 103.47 9.47759 100.333C3.73738 93.7488 7.17457 85.9557 7.17457 85.9557C7.6736 85.396 10.062 85.2729 10.062 85.2729L7.80703 83.9325C8.81844 77.9975 13.5659 74.9782 13.5659 74.9782C14.4999 75.0789 16.0424 75.8624 16.0424 75.8624L15.0897 73.9624C23.9415 72.7871 23.5813 80.9104 23.5813 80.9104C24.6446 80.5976 25.7554 80.5026 26.853 80.6306C29.7376 81.0163 31.8736 83.6323 31.7926 86.6804C31.7633 88.267 31.3336 90.2901 29.9246 92.5567C29.9246 92.5567 28.4488 90.8442 26.8396 90.1474C26.8396 90.1502 28.8705 92.1985 28.8518 94.0678Z" fill="#8CC387"/>
<path fill-rule="evenodd" clip-rule="evenodd" d="M28.8518 94.0678C28.8518 94.0678 25.2758 98.8387 21.8707 99.1186C21.8707 99.1186 22.4498 97.1598 20.3602 95.7355C20.3602 95.7355 21.1421 98.0273 20.6004 99.4935C20.6004 99.4935 15.3726 103.47 9.47759 100.333C3.73738 93.7488 7.17457 85.9557 7.17457 85.9557C7.6736 85.396 10.062 85.2729 10.062 85.2729L7.80703 83.9325C8.81844 77.9975 13.5659 74.9782 13.5659 74.9782C14.4999 75.0789 16.0424 75.8624 16.0424 75.8624L15.0897 73.9624C23.9415 72.7871 23.5813 80.9104 23.5813 80.9104C24.6446 80.5976 25.7554 80.5026 26.853 80.6306C29.7376 81.0163 31.8736 83.6323 31.7926 86.6804C31.7633 88.267 31.3336 90.2901 29.9246 92.5567C29.9246 92.5567 28.4488 90.8442 26.8396 90.1474C26.8396 90.1502 28.8705 92.1985 28.8518 94.0678Z" fill="white" fill-opacity="0.09"/>
<path fill-rule="evenodd" clip-rule="evenodd" d="M8.86365 101.293C10.4682 102.125 12.2465 102.561 14.0515 102.564C16.517 102.533 18.9205 101.782 20.9705 100.403C21.0566 100.341 21.1229 100.255 21.1617 100.155C21.3711 99.541 21.4448 98.8882 21.3777 98.2424C21.503 98.6201 21.5231 99.0251 21.4359 99.4135C21.3812 99.5899 21.4169 99.7821 21.5311 99.9267C21.6454 100.071 21.8234 100.15 22.0065 100.136C25.7402 99.8373 29.4878 95.0918 29.6456 94.891C29.7217 94.794 29.7636 94.6744 29.7647 94.5509C29.7548 93.9719 29.6226 93.4016 29.377 92.878C29.7066 93.1874 29.9143 93.4161 29.9143 93.4161C30.0296 93.5445 30.1976 93.6117 30.369 93.5981C30.5404 93.5844 30.6958 93.4914 30.7896 93.3464C32.0969 91.3221 32.7783 89.2533 32.8171 87.1956C32.9243 83.8637 30.4849 81.0015 27.1971 80.6016C26.222 80.4962 25.2366 80.5413 24.2749 80.7354C24.1863 79.5923 23.7847 77.3255 22.0259 75.6888C20.3723 74.1497 17.9598 73.5726 14.8575 73.9657C14.6769 73.9884 14.5189 74.099 14.4348 74.2616C14.3507 74.4241 14.3514 74.6179 14.4365 74.7798L14.7135 75.3096C14.2901 75.1514 13.8508 75.0402 13.4034 74.9778C13.2836 74.9665 13.1633 74.9939 13.0599 75.0559C12.8494 75.1841 7.90529 78.2623 6.82506 84.3545C6.78483 84.5883 6.89596 84.8221 7.10204 84.9372L7.95238 85.4223C7.27654 85.5506 6.62009 85.7569 6.31264 86.0887C6.27143 86.131 6.2377 86.18 6.21293 86.2337C6.21232 86.2353 6.21026 86.2402 6.20687 86.2482C6.04128 86.6392 2.69104 94.5498 8.70577 101.17C8.7501 101.221 8.8037 101.262 8.86365 101.293ZM20.1922 99.5891C19.3364 100.15 14.6415 102.921 9.45362 100.334V100.342C4.21866 94.4923 6.76966 87.7728 7.19622 86.7997C7.51198 86.6157 8.65868 86.3926 9.76661 86.3369C10.0126 86.3252 10.2214 86.1513 10.279 85.9103C10.3337 85.6664 10.2205 85.4157 10.002 85.2969L8.00777 84.1565C9.01876 79.3971 12.686 76.6647 13.4948 76.107C14.254 76.2945 14.9912 76.5627 15.694 76.9072C15.9089 77.013 16.1669 76.968 16.3339 76.7957C16.5011 76.622 16.538 76.3596 16.4253 76.1461L15.8187 74.9834C18.1869 74.8217 20.0233 75.3235 21.2863 76.4946C23.2761 78.3359 23.2088 81.2758 23.2059 81.4033C23.2058 81.4055 23.2058 81.4069 23.2058 81.4074C23.1971 81.5901 23.2779 81.7655 23.4222 81.8768C23.5664 81.988 23.7557 82.021 23.9287 81.965C24.9571 81.677 26.0305 81.5881 27.0919 81.7029C29.7453 82.0096 31.7812 84.4102 31.7285 87.165C31.6651 88.9237 31.1539 90.6364 30.2439 92.1391C29.4039 91.3014 28.4254 90.6173 27.3522 90.1177C27.1066 90.0182 26.8255 90.1076 26.6811 90.3309C26.5368 90.5543 26.5696 90.8493 26.7595 91.035C27.2857 91.534 28.5654 93.0536 28.6707 94.3501C28.0585 95.0862 25.3247 98.2396 22.6186 98.906C22.602 97.9636 22.1893 96.6922 20.7157 95.7331C20.5164 95.5965 20.2522 95.6054 20.0625 95.7551C19.8727 95.9047 19.8008 96.1608 19.8848 96.3883C20.0814 96.9431 20.4969 98.5435 20.1922 99.5891Z" fill="#372168"/>
<path d="M14.7717 94.359C14.6705 94.3586 14.5729 94.3209 14.497 94.253C14.4153 94.1791 14.3659 94.0752 14.3597 93.9643C14.3535 93.8534 14.391 93.7445 14.464 93.6617C21.4295 85.7409 22.7677 81.3678 22.7814 81.326C22.8459 81.1041 23.0754 80.9774 23.2939 81.0429C23.5124 81.1083 23.6373 81.3412 23.5728 81.563C23.5178 81.7443 22.1989 86.1286 15.0795 94.2195C15.001 94.3081 14.8891 94.3588 14.7717 94.359Z" fill="#372168"/>
<path d="M21.2323 82.0513C21.0632 82.0513 20.9262 81.9039 20.9262 81.7222C20.819 78.7604 17.6626 77.5725 17.632 77.5593C17.4783 77.4956 17.3991 77.3126 17.4526 77.1452C17.5062 76.9778 17.6734 76.8859 17.831 76.9373C17.9779 76.9933 21.413 78.303 21.5385 81.6959C21.5385 81.8776 21.4014 82.025 21.2323 82.025V82.0513Z" fill="#372168"/>
<path d="M21.3062 87.1622C21.2047 87.1621 21.1141 87.0861 21.0796 86.9719C20.4286 84.8304 19.3147 83.2768 17.7668 82.3602C17.0954 81.9476 16.3649 81.6904 15.6137 81.6021C15.4853 81.5944 15.3845 81.4676 15.3846 81.3139C15.3846 81.1547 15.4926 81.0256 15.6258 81.0256C15.6667 81.0256 19.8596 81.3139 21.5232 86.7904C21.5509 86.879 21.5405 86.9783 21.4952 87.0559C21.45 87.1336 21.3758 87.1798 21.2966 87.1795L21.3062 87.1622Z" fill="#372168"/>
<path d="M28.4979 86.1539C28.4243 86.154 28.3555 86.1126 28.3143 86.0434C27.9532 85.3958 27.4272 84.8881 26.8062 84.5874C26.6926 84.5361 26.6372 84.39 26.6824 84.261C26.7276 84.1321 26.8563 84.0691 26.9698 84.1204C27.6733 84.4579 28.2695 85.0306 28.6792 85.7622C28.7482 85.8766 28.7225 86.0328 28.6217 86.1112C28.5847 86.1382 28.5419 86.153 28.4979 86.1539Z" fill="#372168"/>
<path d="M26.4721 97.4359C26.3714 97.4369 26.2868 97.2888 26.2768 97.094C26.2051 95.958 25.9977 94.8704 25.6712 93.9182C25.6134 93.7398 25.641 93.5043 25.7327 93.392C25.8244 93.2798 25.9456 93.3334 26.0033 93.5117C26.3611 94.5645 26.5879 95.7651 26.6655 97.018C26.671 97.1183 26.6558 97.2187 26.6231 97.297C26.5905 97.3754 26.5432 97.4254 26.4917 97.4359H26.4721Z" fill="#372168"/>
<path d="M25.3045 94.359C25.198 94.359 25.0976 94.3017 25.0337 94.2043C24.1172 92.9013 22.9922 91.8093 21.7187 90.9863C21.5532 90.8859 21.4903 90.6513 21.5782 90.4623C21.6661 90.2732 21.8715 90.2014 22.037 90.3018C23.3984 91.1752 24.5988 92.3415 25.572 93.7363C25.685 93.9061 25.6562 94.1484 25.5077 94.2778C25.4495 94.3293 25.3782 94.3579 25.3045 94.359Z" fill="#372168"/>
<path d="M8.52882 100.513C8.37608 100.512 8.24441 100.401 8.21235 100.245C8.1803 100.09 8.25649 99.9322 8.39549 99.8663C9.8036 99.2096 11.7028 96.5727 11.7223 96.5457C11.792 96.4489 11.906 96.3982 12.0213 96.4127C12.1367 96.4271 12.2359 96.5046 12.2815 96.6158C12.3271 96.727 12.3123 96.8551 12.2426 96.9518C12.1613 97.0635 10.2231 99.7546 8.6654 100.482C8.62253 100.503 8.57593 100.513 8.52882 100.513Z" fill="#372168"/>
<path d="M4.507 90.2537C4.30983 90.2777 4.13 90.1414 4.10536 89.9493C4.08071 89.7571 4.22057 89.5819 4.41775 89.5579C4.53199 89.5266 7.2739 88.8378 9.01258 89.5579C9.19497 89.6338 9.27969 89.8394 9.2018 90.0171C9.12392 90.1948 8.91292 90.2774 8.73054 90.2015C7.20607 89.5683 4.62482 90.2224 4.59983 90.2293L4.507 90.2537Z" fill="#372168"/>
<path d="M16.8842 102.56C16.8506 102.565 16.8164 102.565 16.7828 102.56C16.5839 102.503 16.468 102.296 16.5235 102.096C16.763 101.059 16.7306 99.9784 16.4295 98.9584C16.3641 98.7603 16.471 98.5465 16.6681 98.4809C16.8653 98.4152 17.0782 98.5225 17.1436 98.7206C17.4953 99.883 17.5303 101.119 17.245 102.299C17.1942 102.456 17.0482 102.562 16.8842 102.56Z" fill="#372168"/>
<path d="M11.9577 79.9972C11.932 80.001 11.9059 80.001 11.8802 79.9972C9.65469 79.4739 8.68279 79.8032 8.67222 79.8069C8.48845 79.8724 8.28832 79.7709 8.22501 79.58C8.16127 79.3911 8.2554 79.1841 8.43629 79.1153C8.48207 79.1153 9.5737 78.7055 12.0352 79.2836C12.2232 79.329 12.3409 79.5232 12.2993 79.7191C12.2604 79.8823 12.1195 79.997 11.9577 79.9972Z" fill="#372168"/>
<path d="M23.2443 88.2051C23.1406 88.2053 23.0423 88.1666 22.976 88.0998C22.0144 87.1281 19.7952 86.7477 19.7743 86.7447C19.5819 86.7132 19.4563 86.5566 19.4938 86.395C19.5313 86.2334 19.7177 86.1279 19.9101 86.1594C20.0112 86.174 22.3907 86.5838 23.509 87.7134C23.5952 87.8004 23.6141 87.9212 23.5575 88.0238C23.5008 88.1264 23.3789 88.1925 23.2443 88.1934V88.2051Z" fill="#372168"/>
<path d="M17.0977 92.3077C16.9109 92.3077 16.7594 92.1547 16.7594 91.966C16.7189 89.3653 12.5753 87.865 12.5347 87.8445C12.4205 87.8042 12.3363 87.7054 12.3137 87.5854C12.2911 87.4653 12.3337 87.3422 12.4253 87.2624C12.5169 87.1827 12.6437 87.1583 12.7579 87.1986C12.9474 87.267 17.3886 88.8834 17.4359 91.9557C17.4359 92.1444 17.2845 92.2974 17.0977 92.2974V92.3077Z" fill="#372168"/>
<path fill-rule="evenodd" clip-rule="evenodd" d="M29.0962 78.5562C29.0962 78.5562 25.9708 83.6325 26.898 87.035C26.898 87.035 28.4962 85.8135 30.5253 87.3687C30.5253 87.3687 28.1526 87.3687 26.9962 88.3944C26.9962 88.3944 25.1744 94.808 30.0971 99.4817C38.1315 102.848 44.0741 96.8926 44.0741 96.8926C44.415 96.2198 43.6951 93.8595 43.6951 93.8595L45.7078 95.5994C50.794 92.6242 51.904 86.9992 51.904 86.9992C51.4895 86.1251 50.2322 84.8898 50.2322 84.8898L52.3077 85.1793C50.3004 76.1849 42.986 79.2621 42.986 79.2621C42.9028 78.1244 42.6047 77.0133 42.1078 75.9891C40.7484 73.3186 37.6072 72.126 34.8452 73.2317C33.4025 73.7832 31.698 74.8862 30.108 77.0203C30.108 77.0203 32.1916 77.8779 33.3807 79.2069C33.3888 79.1959 30.8116 77.8972 29.0962 78.5562Z" fill="#8CC387"/>
<path fill-rule="evenodd" clip-rule="evenodd" d="M29.0962 78.5562C29.0962 78.5562 25.9708 83.6325 26.898 87.035C26.898 87.035 28.4962 85.8135 30.5253 87.3687C30.5253 87.3687 28.1526 87.3687 26.9962 88.3944C26.9962 88.3944 25.1744 94.808 30.0971 99.4817C38.1315 102.848 44.0741 96.8926 44.0741 96.8926C44.415 96.2198 43.6951 93.8595 43.6951 93.8595L45.7078 95.5994C50.794 92.6242 51.904 86.9992 51.904 86.9992C51.4895 86.1251 50.2322 84.8898 50.2322 84.8898L52.3077 85.1793C50.3004 76.1849 42.986 79.2621 42.986 79.2621C42.9028 78.1244 42.6047 77.0133 42.1078 75.9891C40.7484 73.3186 37.6072 72.126 34.8452 73.2317C33.4025 73.7832 31.698 74.8862 30.108 77.0203C30.108 77.0203 32.1916 77.8779 33.3807 79.2069C33.3888 79.1959 30.8116 77.8972 29.0962 78.5562Z" fill="white" fill-opacity="0.09"/>
<path fill-rule="evenodd" clip-rule="evenodd" d="M28.527 99.4523C30.2097 100.145 32.017 100.505 33.844 100.513C39.6298 100.513 43.5604 96.8009 43.6168 96.7267C43.6603 96.6867 43.6957 96.6392 43.7213 96.5866C43.9331 96.1882 43.8992 95.5096 43.7863 94.8337L44.543 95.4656C44.7251 95.6168 44.9853 95.6399 45.1925 95.5233C50.6168 92.4708 51.831 86.8247 51.8818 86.5857C51.9038 86.4685 51.8881 86.3476 51.8366 86.2395C51.6204 85.8469 51.361 85.4784 51.0629 85.1405L51.6672 85.2201C51.8502 85.2441 52.0337 85.1794 52.1585 85.047C52.2838 84.9146 52.3344 84.7309 52.2941 84.5552C51.5938 81.5275 50.2017 79.4723 48.163 78.4475C45.9972 77.354 43.7072 77.7387 42.5777 78.0464C42.4285 77.0826 42.1286 76.1468 41.6883 75.2714C40.1647 72.3415 36.5932 71.0297 33.46 72.2491C31.5145 72.9772 29.7807 74.307 28.3067 76.2055C28.2007 76.3417 28.1658 76.5181 28.2123 76.6828C28.2588 76.8475 28.3813 76.9819 28.5439 77.0463C28.5524 77.049 28.8348 77.1617 29.2442 77.365C28.6591 77.3117 28.0691 77.3801 27.5133 77.5656C27.3967 77.6092 27.2977 77.6882 27.2309 77.7909C27.0954 78.0052 23.8763 83.1018 24.8929 86.6736C24.9428 86.8469 25.0767 86.9855 25.2515 87.0445C25.4275 87.1054 25.6231 87.0776 25.7739 86.9703C26.1101 86.7556 26.5013 86.6367 26.9034 86.6269C26.2667 86.782 25.6723 87.0698 25.1611 87.4704C25.0768 87.5432 25.0168 87.6388 24.9889 87.7451C24.9098 88.0199 23.0688 94.515 28.3547 99.3451C28.4044 99.3914 28.4629 99.4278 28.527 99.4523ZM42.7189 96.0536C41.9678 96.7212 36.3628 101.367 29.0437 98.4742L29.055 98.4714C24.8025 94.515 25.8021 89.1958 26.0139 88.2094C26.909 87.5748 28.5722 87.4236 29.168 87.4236C29.411 87.4236 29.6269 87.2723 29.7037 87.0479C29.7806 86.8235 29.7013 86.5765 29.5068 86.4345C28.095 85.385 26.7311 85.429 25.836 85.7257C25.531 82.9837 27.5839 79.3762 28.0724 78.5519C29.3515 78.2167 31.2406 78.9118 31.8928 79.2223C32.1361 79.338 32.4295 79.2694 32.5922 79.0587C32.7549 78.8481 32.7411 78.5548 32.5592 78.3596C31.7108 77.5284 30.7211 76.8461 29.6339 76.3429C30.7479 74.9898 32.2006 73.9377 33.8525 73.2877C36.4559 72.3151 39.4491 73.4086 40.6632 75.7797C41.1383 76.7312 41.4257 77.761 41.5104 78.8157C41.5166 78.9951 41.6125 79.1603 41.7673 79.258C41.923 79.3561 42.1183 79.3736 42.2897 79.3047L42.2899 79.3047C42.3285 79.2896 45.1547 78.1888 47.635 79.4449C49.1908 80.2279 50.309 81.772 50.9726 84.036L49.6539 83.8601C49.4119 83.828 49.1762 83.9509 49.0695 84.1646C48.9629 84.3784 49.0095 84.6347 49.1852 84.7998C49.7587 85.3383 50.27 85.9362 50.71 86.5829C50.4643 87.5308 49.1315 91.8609 44.9525 94.3996L43.1735 92.9242C42.9835 92.7656 42.7088 92.7477 42.4987 92.8802C42.2867 93.0143 42.1921 93.269 42.2671 93.5039C42.6003 94.5534 42.798 95.6909 42.7189 96.0536Z" fill="#372168"/>
<path d="M33.216 90.2564C33.1499 90.2573 33.0848 90.2396 33.0271 90.2053C32.838 90.0941 32.766 89.8427 32.8648 89.6378C37.7757 79.9256 41.2686 77.1223 41.4149 77.006C41.5927 76.8665 41.8428 76.9072 41.9736 77.0968C42.1044 77.2864 42.0662 77.5531 41.8885 77.6926C41.8539 77.7182 38.3743 80.53 33.5671 90.0407C33.496 90.1758 33.3612 90.2586 33.216 90.2564Z" fill="#372168"/>
<path d="M46.9056 82.0513C46.8223 82.0515 46.7434 82.0196 46.6909 81.9643C46.6717 81.9455 44.7647 79.9621 42.4093 80.6013C42.3154 80.6265 42.2129 80.607 42.1404 80.5502C42.0679 80.4933 42.0365 80.4078 42.0579 80.3257C42.0793 80.2437 42.1503 80.1777 42.2442 80.1525C44.9491 79.4169 47.0321 81.5766 47.1202 81.6706C47.1855 81.7411 47.1979 81.8372 47.1522 81.9182C47.1066 81.9992 47.0108 82.0509 46.9056 82.0513Z" fill="#372168"/>
<path d="M45.8636 87.1795C45.7468 87.1794 45.6414 87.1093 45.5959 87.0014C45.2025 86.1769 44.6576 85.4342 43.9896 84.8124C42.4736 83.3705 40.5385 82.6379 38.2397 82.635C38.079 82.635 37.9487 82.5044 37.9487 82.3432C37.9487 82.182 38.079 82.0513 38.2397 82.0513C44.1206 82.0513 46.1138 86.7212 46.1313 86.7767C46.1612 86.8483 46.1614 86.9288 46.1319 87.0006C46.1024 87.0723 46.0457 87.1294 45.9742 87.159C45.939 87.173 45.9014 87.1799 45.8636 87.1795Z" fill="#372168"/>
<path d="M39.6014 76.9231C39.4874 76.9237 39.3784 76.8872 39.302 76.8227C38.4726 76.1423 37.3906 75.6709 36.2006 75.4717C35.9868 75.4312 35.8564 75.2665 35.9092 75.1035C35.9346 75.0246 36.0004 74.9567 36.0919 74.915C36.1833 74.8732 36.2929 74.8611 36.3961 74.8814C37.742 75.1102 38.9645 75.6462 39.9008 76.418C40.046 76.5441 40.03 76.736 39.8648 76.847C39.7921 76.8959 39.6984 76.923 39.6014 76.9231Z" fill="#372168"/>
<path d="M30.3707 81.0035C30.3459 81.0073 30.3206 81.0073 30.2958 81.0035C29.2502 80.7237 28.1602 80.7157 27.1113 80.9799C26.9201 81.0332 26.7259 80.9052 26.6776 80.694C26.6293 80.4829 26.7452 80.2684 26.9364 80.2151C28.093 79.9218 29.2954 79.9285 30.4493 80.2348C30.6464 80.2587 30.7887 80.4546 30.767 80.6724C30.7453 80.8901 30.5679 81.0472 30.3707 81.0232V81.0035Z" fill="#372168"/>
<path d="M34.5666 83.0769C34.4919 83.0774 34.4196 83.0561 34.3635 83.0171C33.3695 82.3439 32.2217 81.8268 30.9818 81.4935C30.822 81.4539 30.7331 81.3195 30.7833 81.1934C30.8335 81.0672 31.0038 80.9971 31.1636 81.0367C32.4879 81.3896 33.7133 81.941 34.7726 82.6607C34.8656 82.7274 34.8968 82.8325 34.8511 82.9248C34.8053 83.0171 34.6922 83.0776 34.5666 83.0769Z" fill="#372168"/>
<path d="M30.0095 100.513H29.9835C29.8407 100.499 29.7338 100.34 29.7442 100.157C29.8456 98.4085 31.2602 95.646 31.32 95.5296C31.4 95.3798 31.5593 95.3396 31.6778 95.4395C31.7963 95.5393 31.8303 95.7421 31.7543 95.8953C31.7386 95.9219 30.3527 98.6312 30.2617 100.217C30.2474 100.382 30.1396 100.509 30.0095 100.513Z" fill="#372168"/>
<path d="M41.7182 97.4359C41.5445 97.4365 41.399 97.3165 41.3834 97.1595C41.3834 97.1382 41.1456 94.8752 40.0908 93.8455C40.0088 93.7663 39.9797 93.6534 40.0144 93.5494C40.049 93.4454 40.1422 93.3661 40.2588 93.3414C40.3754 93.3166 40.4977 93.3501 40.5797 93.4294C41.7919 94.614 42.0397 97.0046 42.0498 97.1048C42.0672 97.2717 41.9324 97.4199 41.7484 97.4359H41.7182Z" fill="#372168"/>
<path d="M25.0108 92.3077C24.8397 92.308 24.6878 92.2486 24.6348 92.1605C24.5818 92.0725 24.6398 91.976 24.7783 91.9217C25.8332 91.5407 27.0577 91.3198 28.324 91.282C28.5415 91.282 28.7179 91.3775 28.7179 91.4953C28.7179 91.613 28.5415 91.7085 28.324 91.7085C27.2152 91.7441 26.1427 91.9351 25.2117 92.2629C25.1538 92.2877 25.0842 92.3032 25.0108 92.3077Z" fill="#372168"/>
<path d="M47.8482 92.3077C47.6511 92.3077 47.4914 92.1395 47.4914 91.9319C47.4914 91.9094 47.4486 90.8047 46.2103 88.7831C46.1041 88.6087 46.152 88.3768 46.3173 88.2646C46.4829 88.1528 46.7032 88.2032 46.8098 88.3773C48.1872 90.6318 48.2051 91.8756 48.2051 91.9282C48.2051 92.1357 48.0453 92.3039 47.8482 92.3039V92.3077Z" fill="#372168"/>
<path d="M39.5899 83.0769C39.4478 83.0766 39.3161 83.0373 39.2422 82.9732C39.2422 82.9602 37.8391 81.7627 36.1783 81.4471C36.0369 81.4224 35.9321 81.3591 35.9045 81.2818C35.877 81.2044 35.9312 81.1253 36.0459 81.0752C36.1607 81.0251 36.318 81.0118 36.4565 81.0407C38.3914 81.4082 39.8803 82.6943 39.9417 82.7505C40.0576 82.8526 39.9954 82.985 39.8026 83.0466C39.7383 83.0668 39.6647 83.0773 39.5899 83.0769Z" fill="#372168"/>
<path d="M40.693 91.282C40.5946 91.2812 40.5017 91.2277 40.4398 91.1362C40.4134 91.0967 37.6741 87.1503 35.3096 88.1241C35.138 88.196 34.9503 88.0874 34.8903 87.8817C34.8304 87.6759 34.9209 87.4508 35.0926 87.379C37.8878 86.2239 40.8245 90.4541 40.9495 90.6355C41.0316 90.7536 41.0489 90.9183 40.9938 91.0571C40.9387 91.196 40.8212 91.2838 40.693 91.282Z" fill="#372168"/>
<path fill-rule="evenodd" clip-rule="evenodd" d="M51.6909 67.4696C51.6909 67.4696 52.9128 71.197 51.917 73.2632C51.917 73.2632 51.1096 72.2477 49.7019 72.9697C49.7019 72.9697 51.123 73.313 51.6828 74.1436C51.6828 74.1436 51.952 78.546 48.3993 80.8764C43.1483 81.9124 40.3493 77.2165 40.3493 77.2165C40.2335 76.7352 40.9683 75.3088 40.9683 75.3088L39.5365 76.1482C36.8693 73.5068 36.9285 69.706 36.9285 69.706C37.3069 69.2722 37.7358 68.8943 38.2042 68.5819L36.9231 68.4733C39.2808 62.941 43.2722 65.9699 43.2722 65.9699C43.4674 65.2453 43.7891 64.5687 44.2195 63.977C45.3775 62.44 47.4158 62.1112 48.9322 63.2169C49.972 63.9935 50.7878 65.0765 51.2845 66.3397C50.4868 66.4996 49.7236 66.8211 49.0345 67.2876C49.0345 67.2876 50.7462 66.7916 51.6909 67.4696Z" fill="#8CC387"/>
<path fill-rule="evenodd" clip-rule="evenodd" d="M51.6909 67.4696C51.6909 67.4696 52.9128 71.197 51.917 73.2632C51.917 73.2632 51.1096 72.2477 49.7019 72.9697C49.7019 72.9697 51.123 73.313 51.6828 74.1436C51.6828 74.1436 51.952 78.546 48.3993 80.8764C43.1483 81.9124 40.3493 77.2165 40.3493 77.2165C40.2335 76.7352 40.9683 75.3088 40.9683 75.3088L39.5365 76.1482C36.8693 73.5068 36.9285 69.706 36.9285 69.706C37.3069 69.2722 37.7358 68.8943 38.2042 68.5819L36.9231 68.4733C39.2808 62.941 43.2722 65.9699 43.2722 65.9699C43.4674 65.2453 43.7891 64.5687 44.2195 63.977C45.3775 62.44 47.4158 62.1112 48.9322 63.2169C49.972 63.9935 50.7878 65.0765 51.2845 66.3397C50.4868 66.4996 49.7236 66.8211 49.0345 67.2876C49.0345 67.2876 50.7462 66.7916 51.6909 67.4696Z" fill="white" fill-opacity="0.16"/>
<path fill-rule="evenodd" clip-rule="evenodd" d="M40.4243 77.1969C40.4458 77.241 42.9012 81.0256 47.423 81.0256C47.9486 81.0252 48.4731 80.9763 48.9902 80.8794C49.0538 80.8682 49.1147 80.8448 49.17 80.8105C52.8239 78.558 52.7187 74.4456 52.7075 74.0072C52.7071 73.9919 52.7069 73.9811 52.7069 73.975C52.7019 73.8765 52.6713 73.7813 52.6183 73.6991C52.7327 73.6489 52.8272 73.5604 52.8867 73.4481C53.9633 71.3359 52.7647 67.7809 52.6925 67.5667L52.6908 67.5615C52.6499 67.4474 52.5734 67.3505 52.4734 67.2857C52.3629 67.2107 52.2451 67.1478 52.1219 67.0981C52.3095 66.9384 52.369 66.6688 52.2668 66.4416C51.7282 65.1608 50.8469 64.0636 49.7255 63.2776C47.9863 62.0694 45.637 62.4287 44.3154 64.1051C43.9812 64.5383 43.7059 65.0163 43.497 65.5257C42.5018 65.0098 41.3615 64.8711 40.2767 65.134C38.9054 65.5175 37.7944 66.6319 36.9733 68.4442C36.8987 68.6089 36.9077 68.8008 36.9974 68.9573C37.0662 69.0771 37.1764 69.1657 37.306 69.2056C37.2101 69.2965 37.1205 69.3942 37.0377 69.498C36.9677 69.5937 36.9284 69.7093 36.925 69.829C36.9223 69.9862 36.8955 73.6771 39.7024 76.3004C39.8707 76.4572 40.1169 76.4881 40.317 76.3776L40.3894 76.339C40.3231 76.5662 40.3111 76.8066 40.3545 77.0396C40.3688 77.0958 40.3924 77.149 40.4243 77.1969ZM48.7057 79.8092C44.3557 80.576 41.8761 77.3872 41.4038 76.7141C41.5208 76.2388 41.6986 75.7815 41.9325 75.3542C42.0491 75.1401 42.0141 74.8725 41.8466 74.6977C41.6795 74.5232 41.4205 74.4828 41.2106 74.5984L40.1372 75.197C38.2882 73.2605 38.0279 70.7338 37.9903 70.0221C38.3025 69.7251 38.6412 69.4591 39.002 69.2276C39.1991 69.1021 39.2954 68.8606 39.2409 68.629C39.1858 68.3972 38.992 68.228 38.7605 68.2097L38.2936 68.1739C38.9188 67.0981 39.6622 66.4305 40.529 66.185C41.9377 65.7936 43.261 66.6218 43.4562 66.744C43.4715 66.7535 43.4799 66.7588 43.4809 66.7588C43.6254 66.8618 43.8099 66.8855 43.9746 66.8222C44.1396 66.7591 44.2639 66.6169 44.3074 66.4416C44.4839 65.84 44.7698 65.2784 45.15 64.7865C46.1359 63.5723 47.8524 63.3144 49.1351 64.1879C49.9066 64.7254 50.5416 65.4453 50.9867 66.2871C50.3588 66.4639 49.7626 66.7433 49.221 67.1146C49.0099 67.2683 48.9355 67.5549 49.044 67.7962C49.1526 68.0376 49.4131 68.165 49.6637 68.0994C50.018 68.0084 51.0967 67.8401 51.7408 68.1298C52.0253 69.0318 52.4654 70.9627 52.146 72.3419C51.4468 72.029 50.6479 72.0553 49.9697 72.4137C49.7602 72.5134 49.6363 72.7396 49.6619 72.9753C49.6874 73.2111 49.8567 73.4037 50.0824 73.4536C50.3722 73.5171 51.2256 73.7901 51.6415 74.2177C51.6388 74.9791 51.4563 78.0548 48.7057 79.8092Z" fill="#372168"/>
<path d="M46.7116 75.8974C46.503 75.8971 46.32 75.7761 46.263 75.601C44.2351 69.4635 42.1884 67.3669 42.1697 67.3479C42.0584 67.2386 42.0224 67.0858 42.0752 66.947C42.1279 66.8082 42.2615 66.7046 42.4256 66.6751C42.5897 66.6456 42.7593 66.6947 42.8706 66.804C42.9578 66.8911 45.0512 69.0203 47.1602 75.3699C47.2329 75.5845 47.0939 75.8103 46.8486 75.8757C46.8044 75.8888 46.7583 75.8961 46.7116 75.8974Z" fill="#372168"/>
<path d="M39.2941 68.7179C39.1977 68.7182 39.1064 68.6877 39.0456 68.635C38.9922 68.5887 38.9672 68.5294 38.9762 68.47C38.9851 68.4107 39.0273 68.3564 39.0934 68.319C39.1731 68.2742 41.0878 67.2119 42.9165 67.956C43.0696 68.0179 43.1223 68.1553 43.0344 68.263C42.9464 68.3707 42.751 68.4078 42.5979 68.3459C41.1356 67.7543 39.4917 68.6597 39.4757 68.6686C39.424 68.698 39.3605 68.7152 39.2941 68.7179Z" fill="#372168"/>
<path d="M40.3073 71.7947C40.1929 71.7946 40.088 71.7446 40.035 71.6649C39.982 71.5852 39.9897 71.489 40.0549 71.4152C40.0734 71.3934 42.0467 69.2127 45.9039 69.8655C46.0139 69.8836 46.1032 69.9465 46.1382 70.0303C46.1732 70.1142 46.1486 70.2064 46.0736 70.2721C45.9986 70.3378 45.8846 70.3671 45.7746 70.349C42.3145 69.7639 40.5782 71.6835 40.5598 71.7029C40.4991 71.7633 40.4053 71.7974 40.3073 71.7947Z" fill="#372168"/>
<path d="M45.3981 66.6667C45.3119 66.6669 45.2309 66.6259 45.1801 66.5563C45.1378 66.4985 45.1203 66.4263 45.1314 66.3556C45.1425 66.2848 45.1814 66.2214 45.2393 66.1794C45.7281 65.8332 46.3114 65.6453 46.9104 65.641C47.059 65.641 47.1795 65.7615 47.1795 65.9102C47.1795 66.0589 47.059 66.1794 46.9104 66.1794C46.4197 66.1796 45.9408 66.3299 45.538 66.6101C45.4977 66.6419 45.4491 66.6616 45.3981 66.6667Z" fill="#372168"/>
<path d="M52.0449 70.7692C52.0033 70.7699 51.9622 70.7589 51.9247 70.7372C51.4867 70.4911 51.0069 70.3705 50.5233 70.385C50.3759 70.385 50.2563 70.2416 50.2563 70.0648C50.2563 69.888 50.3759 69.7446 50.5233 69.7446C51.0894 69.7297 51.6506 69.8733 52.1623 70.1641C52.2714 70.2311 52.3284 70.3785 52.3007 70.5217C52.2729 70.6648 52.1674 70.7669 52.0449 70.7692Z" fill="#372168"/>
<path d="M47.5935 71.7949C47.446 71.7944 47.3101 71.7508 47.2364 71.6805C47.1806 71.6281 47.165 71.5655 47.1931 71.5068C47.2211 71.448 47.2905 71.3977 47.3859 71.3672C48.4534 71.0489 49.6217 70.8463 50.8276 70.7702C50.9379 70.7645 51.0476 70.7833 51.1326 70.8224C51.2176 70.8615 51.2707 70.9176 51.2802 70.9784C51.2905 71.0391 51.2565 71.0996 51.1855 71.1464C51.1146 71.1932 51.0127 71.2224 50.9024 71.2277C49.8175 71.2991 48.766 71.4806 47.801 71.7628C47.7382 71.7834 47.6666 71.7944 47.5935 71.7949Z" fill="#372168"/>
<path d="M47.9258 81.0256H47.8887C47.7439 80.9966 47.6432 80.8068 47.6636 80.6017C47.751 79.72 47.3565 78.0168 47.1976 77.4353C47.1718 77.3418 47.1736 77.2376 47.2024 77.1459C47.2313 77.0542 47.2849 76.9828 47.3512 76.9475C47.4168 76.9122 47.4897 76.9153 47.5538 76.9561C47.6178 76.9969 47.6678 77.0721 47.6928 77.1651C47.7192 77.2552 48.3124 79.4537 48.1879 80.7067C48.1683 80.8903 48.0568 81.0259 47.9258 81.0256Z" fill="#372168"/>
<path d="M42.3905 78.9718C42.3578 78.9752 42.3246 78.9752 42.2919 78.9718C42.2049 78.9528 42.1323 78.9098 42.0901 78.8523C42.0479 78.7949 42.0397 78.7278 42.0673 78.666C42.0878 78.6175 42.6082 77.4525 43.5675 76.9671C43.7207 76.8904 43.9321 76.9164 44.0404 77.0254C44.0927 77.0784 44.1132 77.1441 44.0973 77.2079C44.0813 77.2718 44.0302 77.3284 43.9553 77.3651C43.1899 77.7462 42.7205 78.7922 42.7171 78.8019C42.6723 78.9035 42.5398 78.9724 42.3905 78.9718Z" fill="#372168"/>
<path d="M52.0069 77.9487C51.9208 77.9492 51.8386 77.9236 51.7809 77.8785C51.4264 77.6242 50.9836 77.44 50.4968 77.3443C50.3886 77.3285 50.3013 77.2722 50.2693 77.1976C50.2373 77.1229 50.2657 77.0419 50.3433 76.9864C50.4209 76.9309 50.5353 76.9098 50.6415 76.9315C51.2459 77.0468 51.7948 77.2755 52.23 77.5933C52.3412 77.6804 52.3318 77.8145 52.2089 77.8934C52.1536 77.9289 52.0816 77.9486 52.0069 77.9487Z" fill="#372168"/>
<path d="M38.1374 73.8439C38.1235 73.8469 38.1094 73.8469 38.0955 73.8439C37.9949 73.8067 37.9315 73.6495 37.9529 73.4899C37.9529 73.4239 38.0575 72.821 38.6604 71.867C38.7359 71.7651 38.8484 71.7719 38.9187 71.8827C38.9889 71.9935 38.9933 72.171 38.9286 72.29C38.4094 73.1149 38.3238 73.6159 38.3238 73.6219C38.3012 73.7545 38.2244 73.8459 38.1374 73.8439Z" fill="#372168"/>
<path d="M45.3812 69.743C45.315 69.7417 45.2516 69.7044 45.204 69.6386C45.1029 69.4931 45.1029 69.2582 45.204 69.1127C45.2379 69.0605 46.0407 67.8559 46.8827 67.6955C47.0266 67.6687 47.1585 67.814 47.1772 68.02C47.1959 68.2259 47.0944 68.4146 46.9505 68.4414C46.403 68.5458 45.7774 69.3365 45.5819 69.6311C45.5294 69.7081 45.4563 69.7489 45.3812 69.743Z" fill="#372168"/>
<path d="M42.3628 75.8972C42.2301 75.8968 42.1123 75.8457 42.0687 75.7697C42.0251 75.6936 42.0651 75.6092 42.1685 75.5588C42.2625 75.5132 44.4649 74.4675 46.0344 75.0455C46.1572 75.1042 46.1899 75.2089 46.111 75.2908C46.032 75.3727 45.8657 75.4068 45.7211 75.3706C44.5244 74.9295 42.5883 75.8478 42.5695 75.8573C42.5106 75.8851 42.4373 75.8993 42.3628 75.8972Z" fill="#372168"/>
<path d="M52.6262 101.538H52.583C52.4064 101.529 52.2414 101.463 52.1247 101.354C52.0079 101.245 51.949 101.102 51.9608 100.958C52.4199 95.2323 48.3409 89.0924 48.301 89.0324C48.1748 88.8613 48.173 88.6473 48.2964 88.4747C48.4198 88.3022 48.6485 88.1989 48.8924 88.2054C49.1363 88.212 49.3562 88.3274 49.4655 88.5062C49.6418 88.7652 53.7907 94.9787 53.2916 101.029C53.2688 101.316 52.9775 101.539 52.6262 101.538Z" fill="#372168"/>
<path fill-rule="evenodd" clip-rule="evenodd" d="M52.557 73.8461H52.5918C52.7404 73.8485 52.8668 73.745 52.8846 73.6064C52.8933 73.5465 53.8325 67.4299 58.2792 64.3472C60.1229 63.0699 62.3289 62.4844 64.8334 62.6015C64.6516 62.9106 64.5317 63.2485 64.4798 63.5982C64.3324 64.3267 64.7788 65.0458 65.5262 65.284C66.0948 65.5286 66.7563 65.4876 67.2858 65.175C67.8609 64.8223 68.14 64.1695 67.9844 63.541C67.8358 62.8655 67.2595 62.3458 66.535 62.2339C66.3031 62.1985 66.0712 62.1685 65.8422 62.1413C66.9553 60.9675 68.9845 60.1968 70.515 60.0307C70.6733 60.0123 70.786 59.8772 70.7672 59.7284C70.749 59.5798 70.6067 59.4728 70.4484 59.4888C68.0366 59.7529 66.1553 60.8586 65.1813 62.0814C62.4071 61.8907 59.9634 62.5035 57.9343 63.9169C53.2933 67.1304 52.3483 73.2796 52.3106 73.5383C52.2882 73.6872 52.3985 73.825 52.557 73.8461ZM65.0479 63.6663C65.1004 63.3034 65.2348 62.9552 65.4422 62.6451C65.7697 62.675 66.106 62.7159 66.4451 62.7704C66.9308 62.8476 67.315 63.1988 67.4104 63.6527C67.5193 64.0638 67.339 64.4945 66.9611 64.7257C66.5852 64.9377 66.1208 64.9571 65.7262 64.7774C65.2322 64.6231 64.9402 64.1449 65.0479 63.6663Z" fill="#372168"/>
<path fill-rule="evenodd" clip-rule="evenodd" d="M14.9089 75.8071C14.9612 75.8652 15.0347 75.898 15.1115 75.8974C15.1794 75.8972 15.2447 75.8711 15.2949 75.8241C15.4066 75.7196 15.4151 75.5417 15.3141 75.4263C13.3758 73.2428 9.77282 70.041 6.31226 71.5277C5.27686 70.9697 4.11405 70.7113 2.94751 70.7801C1.63611 70.8506 0.601227 71.3133 0.0536694 72.0862C-0.00452871 72.1674 -0.0162995 72.2743 0.0227911 72.3668C0.0618816 72.4593 0.145895 72.5233 0.243183 72.5347C0.340472 72.546 0.436256 72.5031 0.494453 72.4219C0.940713 71.7985 1.84692 71.4035 2.97489 71.3443C3.90703 71.2959 4.83764 71.4666 5.69625 71.8436C5.57305 71.917 5.44985 71.9988 5.32939 72.0834C4.9927 72.3209 4.73547 72.6599 4.59292 73.0538C4.41728 73.5395 4.4741 74.0821 4.74624 74.5179C4.99286 74.9383 5.41436 75.2174 5.8879 75.274C6.7284 75.3586 7.36083 75.0173 7.65925 74.3176C7.93386 73.6292 7.79137 72.8387 7.29512 72.2978C7.16963 72.1586 7.03319 72.0302 6.88719 71.9141C8.72425 71.3189 11.3799 71.8323 14.9089 75.8071ZM5.63876 72.5489C5.8428 72.404 6.05693 72.2748 6.2794 72.1624V72.1596C6.50122 72.306 6.70368 72.4814 6.88172 72.6815C7.23472 73.055 7.34192 73.6073 7.15549 74.092C6.9529 74.5687 6.55318 74.7718 5.93718 74.7126C5.63345 74.6728 5.36464 74.4905 5.20893 74.2189C5.02929 73.9309 4.9908 73.5729 5.10489 73.2513C5.20947 72.9667 5.39569 72.7217 5.63876 72.5489Z" fill="#372168"/>
<path fill-rule="evenodd" clip-rule="evenodd" d="M71.037 114.791C71.0884 114.843 71.1578 114.871 71.2302 114.872C71.302 114.87 71.3703 114.84 71.4206 114.788C71.5276 114.68 71.5276 114.505 71.4206 114.396L71.4203 114.396C71.3605 114.336 67.2013 110.145 68.4874 106.537L68.7027 106.651C69.2989 106.966 69.9988 107.018 70.6342 106.792C71.3957 106.514 71.8262 105.952 71.7931 105.285C71.7597 104.671 71.3356 104.149 70.7445 103.995C70.3555 103.897 69.3483 103.85 68.366 105.502L68.2529 105.705C65.5396 103.553 63.2464 97.0135 63.1102 96.6251C63.1068 96.6154 63.1047 96.6095 63.1041 96.6076C63.0748 96.5102 62.995 96.4367 62.8961 96.4161C62.7972 96.3954 62.695 96.4308 62.6296 96.5084C62.5643 96.586 62.5462 96.6934 62.5826 96.7884C62.5832 96.7904 62.584 96.7926 62.5849 96.7951C62.7201 97.187 65.0682 103.989 68.0156 106.222C67.4058 107.816 67.6597 109.71 68.7854 111.757C69.3999 112.864 70.157 113.884 71.037 114.791ZM68.9455 106.147C68.8648 106.11 68.7865 106.069 68.7109 106.022H68.7137C68.7523 105.944 68.7937 105.866 68.8406 105.788C69.3897 104.862 70.0602 104.395 70.6121 104.534C70.9681 104.627 71.2229 104.943 71.2412 105.313C71.2743 105.73 70.9736 106.078 70.4465 106.27C69.9515 106.445 69.4061 106.4 68.9455 106.147Z" fill="#372168"/>
</svg>
